<mxfile host="app.diagrams.net" agent="Mozilla/5.0 (Macintosh; Intel Mac OS X 10_15_7) AppleWebKit/605.1.15 (KHTML, like Gecko) Version/18.0.1 Safari/605.1.15" version="24.8.4">
  <diagram name="Page-1" id="g219nP5bXt8zVW_GmXOe">
    <mxGraphModel dx="1206" dy="659" grid="1" gridSize="10" guides="1" tooltips="1" connect="1" arrows="1" fold="1" page="1" pageScale="1" pageWidth="827" pageHeight="1169" math="0" shadow="0">
      <root>
        <mxCell id="0" />
        <mxCell id="1" parent="0" />
        <mxCell id="WQrytVi4aBV0WlSLlbxX-1" value="Video Stroe Management System" style="shape=rect;html=1;verticalAlign=top;fontStyle=1;whiteSpace=wrap;align=center;" vertex="1" parent="1">
          <mxGeometry x="80" y="10" width="680" height="1100" as="geometry" />
        </mxCell>
        <mxCell id="WQrytVi4aBV0WlSLlbxX-2" value="Customer" style="shape=umlActor;html=1;verticalLabelPosition=bottom;verticalAlign=top;align=center;" vertex="1" parent="1">
          <mxGeometry x="20" y="130" width="30" height="60" as="geometry" />
        </mxCell>
        <mxCell id="WQrytVi4aBV0WlSLlbxX-3" value="Store Manager" style="shape=umlActor;html=1;verticalLabelPosition=bottom;verticalAlign=top;align=center;" vertex="1" parent="1">
          <mxGeometry x="790" y="220" width="30" height="60" as="geometry" />
        </mxCell>
        <mxCell id="WQrytVi4aBV0WlSLlbxX-18" value="Manage Video&lt;div&gt;Database&lt;/div&gt;" style="ellipse;whiteSpace=wrap;html=1;" vertex="1" parent="1">
          <mxGeometry x="520" y="240" width="140" height="60" as="geometry" />
        </mxCell>
        <mxCell id="WQrytVi4aBV0WlSLlbxX-19" value="Assign Catalog" style="ellipse;whiteSpace=wrap;html=1;" vertex="1" parent="1">
          <mxGeometry x="580" y="30" width="140" height="60" as="geometry" />
        </mxCell>
        <mxCell id="WQrytVi4aBV0WlSLlbxX-20" value="&amp;lt;&amp;lt;include&amp;gt;&amp;gt;" style="edgeStyle=none;html=1;endArrow=open;verticalAlign=bottom;dashed=1;labelBackgroundColor=none;rounded=0;exitX=0.5;exitY=1;exitDx=0;exitDy=0;entryX=0.5;entryY=0;entryDx=0;entryDy=0;" edge="1" parent="1" source="WQrytVi4aBV0WlSLlbxX-19" target="WQrytVi4aBV0WlSLlbxX-25">
          <mxGeometry width="160" relative="1" as="geometry">
            <mxPoint x="500" y="50" as="sourcePoint" />
            <mxPoint x="660" y="50" as="targetPoint" />
          </mxGeometry>
        </mxCell>
        <mxCell id="WQrytVi4aBV0WlSLlbxX-21" value="" style="edgeStyle=none;html=1;endArrow=none;verticalAlign=bottom;rounded=0;exitX=1;exitY=0.5;exitDx=0;exitDy=0;entryX=0;entryY=0.3333333333333333;entryDx=0;entryDy=0;entryPerimeter=0;" edge="1" parent="1" source="WQrytVi4aBV0WlSLlbxX-18" target="WQrytVi4aBV0WlSLlbxX-3">
          <mxGeometry width="160" relative="1" as="geometry">
            <mxPoint x="500" y="50" as="sourcePoint" />
            <mxPoint x="660" y="50" as="targetPoint" />
          </mxGeometry>
        </mxCell>
        <mxCell id="WQrytVi4aBV0WlSLlbxX-23" value="Register AVS Card" style="ellipse;whiteSpace=wrap;html=1;" vertex="1" parent="1">
          <mxGeometry x="190" y="50" width="140" height="60" as="geometry" />
        </mxCell>
        <mxCell id="WQrytVi4aBV0WlSLlbxX-24" value="" style="edgeStyle=none;html=1;endArrow=none;verticalAlign=bottom;rounded=0;exitX=0;exitY=0.5;exitDx=0;exitDy=0;entryX=1;entryY=0.3333333333333333;entryDx=0;entryDy=0;entryPerimeter=0;" edge="1" parent="1" source="WQrytVi4aBV0WlSLlbxX-23" target="WQrytVi4aBV0WlSLlbxX-2">
          <mxGeometry width="160" relative="1" as="geometry">
            <mxPoint x="500" y="170" as="sourcePoint" />
            <mxPoint x="660" y="170" as="targetPoint" />
          </mxGeometry>
        </mxCell>
        <mxCell id="WQrytVi4aBV0WlSLlbxX-31" style="edgeStyle=orthogonalEdgeStyle;rounded=0;orthogonalLoop=1;jettySize=auto;html=1;entryX=0.5;entryY=0;entryDx=0;entryDy=0;" edge="1" parent="1" source="WQrytVi4aBV0WlSLlbxX-25" target="WQrytVi4aBV0WlSLlbxX-18">
          <mxGeometry relative="1" as="geometry" />
        </mxCell>
        <mxCell id="WQrytVi4aBV0WlSLlbxX-25" value="Add Video" style="ellipse;whiteSpace=wrap;html=1;" vertex="1" parent="1">
          <mxGeometry x="600" y="140" width="140" height="60" as="geometry" />
        </mxCell>
        <mxCell id="WQrytVi4aBV0WlSLlbxX-30" style="edgeStyle=orthogonalEdgeStyle;rounded=0;orthogonalLoop=1;jettySize=auto;html=1;" edge="1" parent="1" source="WQrytVi4aBV0WlSLlbxX-26" target="WQrytVi4aBV0WlSLlbxX-18">
          <mxGeometry relative="1" as="geometry" />
        </mxCell>
        <mxCell id="WQrytVi4aBV0WlSLlbxX-26" value="View Video" style="ellipse;whiteSpace=wrap;html=1;" vertex="1" parent="1">
          <mxGeometry x="430" y="140" width="140" height="60" as="geometry" />
        </mxCell>
        <mxCell id="WQrytVi4aBV0WlSLlbxX-32" value="Rent Video" style="ellipse;whiteSpace=wrap;html=1;" vertex="1" parent="1">
          <mxGeometry x="250" y="120" width="140" height="60" as="geometry" />
        </mxCell>
        <mxCell id="WQrytVi4aBV0WlSLlbxX-33" value="" style="edgeStyle=none;html=1;endArrow=none;verticalAlign=bottom;rounded=0;exitX=1;exitY=0.3333333333333333;exitDx=0;exitDy=0;exitPerimeter=0;entryX=0;entryY=0.5;entryDx=0;entryDy=0;" edge="1" parent="1" source="WQrytVi4aBV0WlSLlbxX-2" target="WQrytVi4aBV0WlSLlbxX-32">
          <mxGeometry width="160" relative="1" as="geometry">
            <mxPoint x="500" y="170" as="sourcePoint" />
            <mxPoint x="660" y="170" as="targetPoint" />
          </mxGeometry>
        </mxCell>
        <mxCell id="WQrytVi4aBV0WlSLlbxX-34" value="Check Overdue Video" style="ellipse;whiteSpace=wrap;html=1;" vertex="1" parent="1">
          <mxGeometry x="330" y="240" width="140" height="60" as="geometry" />
        </mxCell>
        <mxCell id="WQrytVi4aBV0WlSLlbxX-35" value="&amp;lt;&amp;lt;include&amp;gt;&amp;gt;" style="edgeStyle=none;html=1;endArrow=open;verticalAlign=bottom;dashed=1;labelBackgroundColor=none;rounded=0;exitX=0.5;exitY=0;exitDx=0;exitDy=0;entryX=0.5;entryY=1;entryDx=0;entryDy=0;" edge="1" parent="1" source="WQrytVi4aBV0WlSLlbxX-34" target="WQrytVi4aBV0WlSLlbxX-32">
          <mxGeometry x="-0.0701" y="-2" width="160" relative="1" as="geometry">
            <mxPoint x="500" y="310" as="sourcePoint" />
            <mxPoint x="660" y="310" as="targetPoint" />
            <mxPoint as="offset" />
          </mxGeometry>
        </mxCell>
        <mxCell id="WQrytVi4aBV0WlSLlbxX-37" value="Returen the Video" style="ellipse;whiteSpace=wrap;html=1;" vertex="1" parent="1">
          <mxGeometry x="120" y="230" width="140" height="60" as="geometry" />
        </mxCell>
        <mxCell id="WQrytVi4aBV0WlSLlbxX-38" value="Pay Overdue Fee" style="ellipse;whiteSpace=wrap;html=1;" vertex="1" parent="1">
          <mxGeometry x="120" y="390" width="140" height="60" as="geometry" />
        </mxCell>
        <mxCell id="WQrytVi4aBV0WlSLlbxX-42" value="Check Pending&lt;div&gt;Over due Fee&lt;/div&gt;" style="ellipse;whiteSpace=wrap;html=1;" vertex="1" parent="1">
          <mxGeometry x="325" y="380" width="150" height="60" as="geometry" />
        </mxCell>
        <mxCell id="WQrytVi4aBV0WlSLlbxX-45" value="&amp;lt;&amp;lt;extend&amp;gt;&amp;gt;" style="edgeStyle=none;html=1;startArrow=open;endArrow=none;startSize=12;verticalAlign=bottom;dashed=1;labelBackgroundColor=none;rounded=0;exitX=0.5;exitY=0;exitDx=0;exitDy=0;entryX=0.5;entryY=1;entryDx=0;entryDy=0;" edge="1" parent="1" source="WQrytVi4aBV0WlSLlbxX-38" target="WQrytVi4aBV0WlSLlbxX-37">
          <mxGeometry width="160" relative="1" as="geometry">
            <mxPoint x="500" y="310" as="sourcePoint" />
            <mxPoint x="660" y="310" as="targetPoint" />
          </mxGeometry>
        </mxCell>
        <mxCell id="WQrytVi4aBV0WlSLlbxX-46" value="" style="edgeStyle=none;html=1;endArrow=none;verticalAlign=bottom;rounded=0;exitX=1;exitY=0.3333333333333333;exitDx=0;exitDy=0;exitPerimeter=0;entryX=0.5;entryY=0;entryDx=0;entryDy=0;" edge="1" parent="1" source="WQrytVi4aBV0WlSLlbxX-2" target="WQrytVi4aBV0WlSLlbxX-37">
          <mxGeometry width="160" relative="1" as="geometry">
            <mxPoint x="500" y="360" as="sourcePoint" />
            <mxPoint x="660" y="360" as="targetPoint" />
          </mxGeometry>
        </mxCell>
        <mxCell id="WQrytVi4aBV0WlSLlbxX-47" value="&amp;lt;&amp;lt;include&amp;gt;&amp;gt;" style="edgeStyle=none;html=1;endArrow=open;verticalAlign=bottom;dashed=1;labelBackgroundColor=none;rounded=0;exitX=0.5;exitY=0;exitDx=0;exitDy=0;entryX=0.5;entryY=1;entryDx=0;entryDy=0;" edge="1" parent="1" source="WQrytVi4aBV0WlSLlbxX-42" target="WQrytVi4aBV0WlSLlbxX-34">
          <mxGeometry width="160" relative="1" as="geometry">
            <mxPoint x="500" y="360" as="sourcePoint" />
            <mxPoint x="660" y="360" as="targetPoint" />
          </mxGeometry>
        </mxCell>
        <mxCell id="WQrytVi4aBV0WlSLlbxX-48" value="Generating Overdue List" style="ellipse;whiteSpace=wrap;html=1;" vertex="1" parent="1">
          <mxGeometry x="560" y="540" width="140" height="60" as="geometry" />
        </mxCell>
        <mxCell id="WQrytVi4aBV0WlSLlbxX-49" value="" style="edgeStyle=none;html=1;endArrow=none;verticalAlign=bottom;rounded=0;entryX=0;entryY=0.3333333333333333;entryDx=0;entryDy=0;entryPerimeter=0;exitX=1;exitY=0.5;exitDx=0;exitDy=0;" edge="1" parent="1" source="WQrytVi4aBV0WlSLlbxX-48" target="WQrytVi4aBV0WlSLlbxX-3">
          <mxGeometry width="160" relative="1" as="geometry">
            <mxPoint x="500" y="360" as="sourcePoint" />
            <mxPoint x="660" y="360" as="targetPoint" />
          </mxGeometry>
        </mxCell>
        <mxCell id="WQrytVi4aBV0WlSLlbxX-50" value="Check Overdue Period" style="ellipse;whiteSpace=wrap;html=1;" vertex="1" parent="1">
          <mxGeometry x="560" y="650" width="140" height="60" as="geometry" />
        </mxCell>
        <mxCell id="WQrytVi4aBV0WlSLlbxX-51" value="&amp;lt;&amp;lt;extend&amp;gt;&amp;gt;" style="edgeStyle=none;html=1;startArrow=open;endArrow=none;startSize=12;verticalAlign=bottom;dashed=1;labelBackgroundColor=none;rounded=0;exitX=0.5;exitY=0;exitDx=0;exitDy=0;entryX=0.5;entryY=1;entryDx=0;entryDy=0;" edge="1" parent="1" source="WQrytVi4aBV0WlSLlbxX-50" target="WQrytVi4aBV0WlSLlbxX-48">
          <mxGeometry width="160" relative="1" as="geometry">
            <mxPoint x="500" y="360" as="sourcePoint" />
            <mxPoint x="660" y="360" as="targetPoint" />
          </mxGeometry>
        </mxCell>
        <mxCell id="WQrytVi4aBV0WlSLlbxX-52" value="Send Notification" style="ellipse;whiteSpace=wrap;html=1;" vertex="1" parent="1">
          <mxGeometry x="560" y="760" width="140" height="60" as="geometry" />
        </mxCell>
        <mxCell id="WQrytVi4aBV0WlSLlbxX-53" value="&amp;lt;&amp;lt;include&amp;gt;&amp;gt;" style="edgeStyle=none;html=1;endArrow=open;verticalAlign=bottom;dashed=1;labelBackgroundColor=none;rounded=0;exitX=0.5;exitY=0;exitDx=0;exitDy=0;entryX=0.5;entryY=1;entryDx=0;entryDy=0;" edge="1" parent="1" source="WQrytVi4aBV0WlSLlbxX-52" target="WQrytVi4aBV0WlSLlbxX-50">
          <mxGeometry width="160" relative="1" as="geometry">
            <mxPoint x="500" y="360" as="sourcePoint" />
            <mxPoint x="660" y="360" as="targetPoint" />
          </mxGeometry>
        </mxCell>
        <mxCell id="WQrytVi4aBV0WlSLlbxX-54" value="" style="edgeStyle=none;html=1;endArrow=none;verticalAlign=bottom;rounded=0;exitX=1;exitY=0.3333333333333333;exitDx=0;exitDy=0;exitPerimeter=0;entryX=0;entryY=0.5;entryDx=0;entryDy=0;" edge="1" parent="1" source="WQrytVi4aBV0WlSLlbxX-2" target="WQrytVi4aBV0WlSLlbxX-52">
          <mxGeometry width="160" relative="1" as="geometry">
            <mxPoint x="500" y="360" as="sourcePoint" />
            <mxPoint x="660" y="360" as="targetPoint" />
            <Array as="points">
              <mxPoint x="110" y="510" />
            </Array>
          </mxGeometry>
        </mxCell>
        <mxCell id="WQrytVi4aBV0WlSLlbxX-55" value="Check video condition" style="ellipse;whiteSpace=wrap;html=1;" vertex="1" parent="1">
          <mxGeometry x="520" y="340" width="140" height="60" as="geometry" />
        </mxCell>
        <mxCell id="WQrytVi4aBV0WlSLlbxX-56" value="" style="edgeStyle=none;html=1;endArrow=none;verticalAlign=bottom;rounded=0;exitX=1;exitY=0.5;exitDx=0;exitDy=0;entryX=0;entryY=0.3333333333333333;entryDx=0;entryDy=0;entryPerimeter=0;" edge="1" parent="1" source="WQrytVi4aBV0WlSLlbxX-55" target="WQrytVi4aBV0WlSLlbxX-3">
          <mxGeometry width="160" relative="1" as="geometry">
            <mxPoint x="500" y="530" as="sourcePoint" />
            <mxPoint x="660" y="530" as="targetPoint" />
          </mxGeometry>
        </mxCell>
        <mxCell id="WQrytVi4aBV0WlSLlbxX-57" value="Remove Damaged" style="ellipse;whiteSpace=wrap;html=1;" vertex="1" parent="1">
          <mxGeometry x="420" y="450" width="140" height="60" as="geometry" />
        </mxCell>
        <mxCell id="WQrytVi4aBV0WlSLlbxX-58" value="&amp;lt;&amp;lt;extend&amp;gt;&amp;gt;" style="edgeStyle=none;html=1;startArrow=open;endArrow=none;startSize=12;verticalAlign=bottom;dashed=1;labelBackgroundColor=none;rounded=0;exitX=0.5;exitY=1;exitDx=0;exitDy=0;entryX=0.5;entryY=0;entryDx=0;entryDy=0;" edge="1" parent="1" source="WQrytVi4aBV0WlSLlbxX-55" target="WQrytVi4aBV0WlSLlbxX-57">
          <mxGeometry width="160" relative="1" as="geometry">
            <mxPoint x="500" y="530" as="sourcePoint" />
            <mxPoint x="660" y="530" as="targetPoint" />
          </mxGeometry>
        </mxCell>
        <mxCell id="WQrytVi4aBV0WlSLlbxX-59" value="Damage Charge" style="ellipse;whiteSpace=wrap;html=1;" vertex="1" parent="1">
          <mxGeometry x="335" y="555" width="140" height="60" as="geometry" />
        </mxCell>
        <mxCell id="WQrytVi4aBV0WlSLlbxX-60" value="&amp;lt;&amp;lt;extend&amp;gt;&amp;gt;" style="edgeStyle=none;html=1;startArrow=open;endArrow=none;startSize=12;verticalAlign=bottom;dashed=1;labelBackgroundColor=none;rounded=0;exitX=0.5;exitY=1;exitDx=0;exitDy=0;entryX=0.5;entryY=0;entryDx=0;entryDy=0;" edge="1" parent="1" source="WQrytVi4aBV0WlSLlbxX-57" target="WQrytVi4aBV0WlSLlbxX-59">
          <mxGeometry width="160" relative="1" as="geometry">
            <mxPoint x="500" y="530" as="sourcePoint" />
            <mxPoint x="660" y="530" as="targetPoint" />
          </mxGeometry>
        </mxCell>
      </root>
    </mxGraphModel>
  </diagram>
</mxfile>
